<?xml version="1.0" encoding="UTF-8"?>
<svg xmlns="http://www.w3.org/2000/svg" xmlns:xlink="http://www.w3.org/1999/xlink" width="50px" height="49px" viewBox="0 0 50 49" version="1.1">
<g id="surface1">
<path style=" stroke:none;fill-rule:nonzero;fill:rgb(0%,0%,0%);fill-opacity:1;" d="M 14.574219 9.722656 C 14.574219 9.882812 15.089844 10.046875 15.707031 10.046875 C 17.261719 10.046875 17.390625 10.566406 16.515625 13.707031 C 15.542969 17.273438 13.664062 24.339844 13.050781 26.734375 C 12.46875 29.003906 11.980469 29.492188 10.296875 29.492188 C 9.617188 29.492188 9.066406 29.621094 9.066406 29.816406 C 9.066406 30.007812 10.914062 30.140625 13.925781 30.140625 C 16.9375 30.140625 18.78125 30.007812 18.78125 29.816406 C 18.78125 29.621094 18.003906 29.492188 17.035156 29.492188 C 16.0625 29.492188 15.15625 29.328125 15.058594 29.167969 C 14.929688 28.972656 15.15625 27.773438 15.511719 26.476562 C 15.867188 25.214844 16.449219 23.203125 16.773438 22.035156 L 17.359375 19.929688 L 19.136719 19.832031 C 21.632812 19.703125 22.183594 20.191406 22.148438 22.457031 C 22.117188 23.429688 21.632812 25.894531 21.082031 27.902344 C 20.5 29.945312 19.6875 32.828125 19.269531 34.351562 C 18.847656 35.875 18.328125 37.722656 18.132812 38.46875 L 17.777344 39.859375 L 16.191406 39.859375 C 15.285156 39.859375 14.574219 39.992188 14.574219 40.183594 C 14.574219 40.378906 16.257812 40.507812 18.945312 40.507812 C 21.632812 40.507812 23.316406 40.378906 23.316406 40.183594 C 23.316406 39.992188 22.796875 39.859375 22.183594 39.859375 C 21.4375 39.859375 20.953125 39.667969 20.824219 39.375 C 20.628906 38.855469 21.761719 34.09375 22.667969 31.433594 L 23.1875 29.976562 L 27.6875 29.878906 C 30.148438 29.847656 32.253906 29.910156 32.382812 30.042969 C 32.707031 30.398438 30.179688 39.277344 29.695312 39.601562 C 29.46875 39.730469 28.757812 39.859375 28.109375 39.859375 C 27.429688 39.859375 26.878906 39.992188 26.878906 40.183594 C 26.878906 40.378906 28.5625 40.507812 31.25 40.507812 C 33.9375 40.507812 35.621094 40.378906 35.621094 40.183594 C 35.621094 39.992188 35.039062 39.859375 34.359375 39.859375 C 33.644531 39.859375 33 39.730469 32.871094 39.570312 C 32.707031 39.308594 34.132812 33.703125 36.625 24.792969 C 36.980469 23.527344 37.339844 22.070312 37.46875 21.550781 C 37.757812 20.09375 38.148438 19.769531 39.703125 19.769531 C 40.480469 19.769531 41.125 19.605469 41.125 19.445312 C 41.125 19.25 39.441406 19.121094 36.753906 19.121094 C 34.066406 19.121094 32.382812 19.25 32.382812 19.445312 C 32.382812 19.605469 32.964844 19.769531 33.644531 19.769531 C 34.359375 19.769531 34.972656 19.929688 35.039062 20.15625 C 35.167969 20.480469 33.226562 28.453125 32.964844 28.679688 C 32.773438 28.875 23.671875 28.972656 23.476562 28.777344 C 23.378906 28.679688 23.574219 27.675781 23.929688 26.542969 C 24.253906 25.40625 24.707031 23.722656 24.933594 22.847656 C 25.582031 20.320312 26.035156 19.769531 27.527344 19.769531 C 28.207031 19.769531 28.886719 19.605469 28.984375 19.445312 C 29.113281 19.25 28.238281 19.121094 26.585938 19.121094 C 25.128906 19.121094 23.964844 19.023438 23.964844 18.859375 C 23.964844 18.730469 24.191406 17.824219 24.449219 16.851562 C 25.03125 14.648438 24.839844 14.355469 24.027344 16.234375 C 23.089844 18.375 22.3125 18.894531 19.882812 19.054688 C 18.199219 19.183594 17.8125 19.089844 17.8125 18.730469 C 17.8125 17.792969 19.722656 10.953125 20.109375 10.5 C 20.371094 10.175781 21.277344 10.046875 23.378906 10.046875 C 27.785156 10.046875 28.855469 10.890625 28.886719 14.324219 C 28.886719 15.167969 28.984375 15.878906 29.113281 15.878906 C 29.339844 15.878906 30.441406 10.984375 30.441406 9.949219 C 30.441406 9.429688 29.859375 9.398438 22.507812 9.398438 C 17.421875 9.398438 14.574219 9.527344 14.574219 9.722656 Z M 14.574219 9.722656 "/>
</g>
</svg>
